<?xml version="1.0" encoding="UTF-8"?>
<svg width="25px" height="25px" viewBox="0 0 25 25" version="1.1" xmlns="http://www.w3.org/2000/svg" xmlns:xlink="http://www.w3.org/1999/xlink">
    <!-- Generator: Sketch 46.1 (44463) - http://www.bohemiancoding.com/sketch -->
    <title>Page 1</title>
    <desc>Created with Sketch.</desc>
    <defs>
        <polygon id="path-1" points="6.65022508e-17 20.99975 6.65022508e-17 0.91225 15.5587 0.91225 15.5587 20.99975"></polygon>
    </defs>
    <g id="Homepage" stroke="none" stroke-width="1" fill="none" fill-rule="evenodd">
        <g transform="translate(-1768.000000, -1117.000000)" id="Page-1">
            <g transform="translate(1768.000000, 1116.000000)">
                <g id="Group-3" transform="translate(0.000000, 4.337000)">
                    <mask id="mask-2" fill="white">
                        <use xlink:href="#path-1"></use>
                    </mask>
                    <g id="Clip-2"></g>
                    <path d="M15.4537,11.134 C15.5937,11.055 15.5937,10.857 15.4537,10.778 C14.1897,10.068 12.1797,8.71 10.4787,6.372 C8.9617,4.286 8.2897,2.427 7.9747,1.069 C7.9267,0.86 7.6317,0.86 7.5837,1.069 C7.2687,2.427 6.5967,4.286 5.0797,6.372 C3.3787,8.71 1.3697,10.068 0.1047,10.778 C-0.0353,10.857 -0.0353,11.055 0.1047,11.134 C1.3697,11.844 3.3787,13.202 5.0797,15.54 C6.5967,17.626 7.2687,19.485 7.5837,20.843 C7.6317,21.052 7.9267,21.052 7.9747,20.843 C8.2897,19.485 8.9617,17.626 10.4787,15.54 C12.1797,13.202 14.1897,11.844 15.4537,11.134" id="Fill-1" fill="#FFFFFF" mask="url(#mask-2)"></path>
                </g>
                <g id="Group-6" transform="translate(16.000000, 0.337000)" fill="#FFFFFF">
                    <path d="M8.2759,5.5612 C8.4039,5.4832 8.4039,5.3002 8.2759,5.2222 C7.6559,4.8472 6.7529,4.1802 5.9799,3.0862 C5.3729,2.2282 5.0429,1.4452 4.8589,0.8152 C4.7989,0.6122 4.5219,0.6122 4.4629,0.8152 C4.2779,1.4452 3.9479,2.2282 3.3409,3.0862 C2.5709,4.1762 1.5409,4.8422 0.8819,5.2182 C0.7449,5.2962 0.7449,5.4872 0.8819,5.5652 C1.5409,5.9412 2.5709,6.6072 3.3409,7.6972 C3.9479,8.5562 4.2779,9.3382 4.4629,9.9682 C4.5219,10.1712 4.7989,10.1712 4.8589,9.9682 C5.0429,9.3382 5.3729,8.5562 5.9799,7.6972 C6.7529,6.6032 7.6559,5.9362 8.2759,5.5612" id="Fill-4"></path>
                </g>
            </g>
        </g>
    </g>
</svg>